<svg width="267.918457" height="254.001465" viewBox="0 0 267.918 254.001" fill="none" xmlns="http://www.w3.org/2000/svg" xmlns:xlink="http://www.w3.org/1999/xlink">
	<desc>
			Created with Pixso.
	</desc>
	<defs/>
	<g opacity="0.399670" style="mix-blend-mode:normal">
		<mask id="mask0_10" mask-type="alpha" maskUnits="userSpaceOnUse" x="62.623657" y="5.348633" width="117.114990" height="141.640625">
			<path id="Clip 2" d="M84.21 6.2L71.3 15.3L163.36 146.5L171.5 130.61L84.21 6.2Z" fill="#000000" fill-opacity="1.000000" fill-rule="evenodd"/>
		</mask>
		<g mask="url(#mask0_10)">
			<path id="Fill 1" d="M58.12 123.08C58.6 122.73 59.1 122.43 59.53 122.04C104.45 82.9 149.36 43.75 194.27 4.6C194.64 4.28 195.03 4 195.41 3.7L194.84 11.82C194.41 12.13 193.95 12.4 193.55 12.75C155.34 46.06 117.12 79.38 78.91 112.69C71.8 118.88 64.67 125.03 57.56 131.2L58.12 123.08Z" fill="#231F20" fill-opacity="1.000000" fill-rule="evenodd"/>
		</g>
		<mask id="mask0_13" mask-type="alpha" maskUnits="userSpaceOnUse" x="62.623657" y="5.348633" width="117.114990" height="141.640625">
			<path id="Clip 5" d="M84.21 6.2L71.3 15.3L163.36 146.5L171.5 130.61L84.21 6.2Z" fill="#000000" fill-opacity="1.000000" fill-rule="evenodd"/>
		</mask>
		<g mask="url(#mask0_13)">
			<path id="Fill 4" d="M56.99 139.32C57.54 138.91 58.12 138.53 58.64 138.08C103.44 99.04 148.23 59.99 193.01 20.95C193.42 20.6 193.85 20.28 194.28 19.95L193.71 28.07C193.15 28.48 192.57 28.86 192.05 29.32C147.3 68.32 102.55 107.33 57.8 146.34C57.36 146.72 56.88 147.08 56.42 147.45L56.99 139.32Z" fill="#231F20" fill-opacity="1.000000" fill-rule="evenodd"/>
		</g>
		<mask id="mask0_16" mask-type="alpha" maskUnits="userSpaceOnUse" x="62.623657" y="5.348633" width="117.114990" height="141.640625">
			<path id="Clip 8" d="M84.21 6.2L71.3 15.3L163.36 146.5L171.5 130.61L84.21 6.2Z" fill="#000000" fill-opacity="1.000000" fill-rule="evenodd"/>
		</mask>
		<g mask="url(#mask0_16)">
			<path id="Fill 7" d="M55.85 155.57C56.36 155.19 56.91 154.85 57.39 154.43C102.26 115.32 147.13 76.2 192 37.09C192.36 36.77 192.76 36.49 193.14 36.19L192.57 44.32C192.14 44.62 191.68 44.89 191.28 45.24C152.94 78.66 114.6 112.08 76.26 145.5C69.28 151.58 62.28 157.63 55.28 163.69L55.85 155.57Z" fill="#231F20" fill-opacity="1.000000" fill-rule="evenodd"/>
		</g>
		<mask id="mask0_19" mask-type="alpha" maskUnits="userSpaceOnUse" x="62.623657" y="5.348633" width="117.114990" height="141.640625">
			<path id="Clip 11" d="M84.21 6.2L71.3 15.3L163.36 146.5L171.5 130.61L84.21 6.2Z" fill="#000000" fill-opacity="1.000000" fill-rule="evenodd"/>
		</mask>
		<g mask="url(#mask0_19)">
			<path id="Fill 10" d="M54.72 171.82C55.23 171.44 55.77 171.1 56.25 170.68C101.08 131.61 145.91 92.52 190.74 53.44C191.15 53.09 191.58 52.77 192 52.44C191.82 55.15 191.63 57.86 191.44 60.56C190.88 60.98 190.3 61.35 189.78 61.81C145.03 100.81 100.28 139.82 55.53 178.83C55.08 179.22 54.61 179.57 54.15 179.94L54.72 171.82Z" fill="#231F20" fill-opacity="1.000000" fill-rule="evenodd"/>
		</g>
		<mask id="mask0_22" mask-type="alpha" maskUnits="userSpaceOnUse" x="62.623657" y="5.348633" width="117.114990" height="141.640625">
			<path id="Clip 14" d="M84.21 6.2L71.3 15.3L163.36 146.5L171.5 130.61L84.21 6.2Z" fill="#000000" fill-opacity="1.000000" fill-rule="evenodd"/>
		</mask>
		<g mask="url(#mask0_22)">
			<path id="Fill 13" d="M53.58 188.06C54.05 187.72 54.55 187.41 54.99 187.03C99.9 147.89 144.82 108.73 189.73 69.58C190.09 69.27 190.49 68.98 190.87 68.69L190.3 76.81C189.87 77.12 189.41 77.39 189.01 77.74C150.79 111.05 112.58 144.37 74.36 177.68C67.26 183.86 60.13 190.02 53.01 196.19L53.58 188.06Z" fill="#231F20" fill-opacity="1.000000" fill-rule="evenodd"/>
		</g>
		<mask id="mask0_25" mask-type="alpha" maskUnits="userSpaceOnUse" x="62.623657" y="5.348633" width="117.114990" height="141.640625">
			<path id="Clip 17" d="M84.21 6.2L71.3 15.3L163.36 146.5L171.5 130.61L84.21 6.2Z" fill="#000000" fill-opacity="1.000000" fill-rule="evenodd"/>
		</mask>
		<g mask="url(#mask0_25)">
			<path id="Fill 16" d="M52.44 204.31C53 203.9 53.58 203.52 54.1 203.07C98.89 164.03 143.68 124.98 188.47 85.94C188.88 85.58 189.31 85.27 189.73 84.93L189.16 93.06C188.65 93.43 188.11 93.78 187.63 94.2C143.58 132.59 99.54 170.98 55.5 209.39C55.06 209.77 54.68 210.22 54.28 210.64L52.01 210.49L52.44 204.31Z" fill="#231F20" fill-opacity="1.000000" fill-rule="evenodd"/>
		</g>
		<mask id="mask0_28" mask-type="alpha" maskUnits="userSpaceOnUse" x="62.623657" y="5.348633" width="117.114990" height="141.640625">
			<path id="Clip 20" d="M84.21 6.2L71.3 15.3L163.36 146.5L171.5 130.61L84.21 6.2Z" fill="#000000" fill-opacity="1.000000" fill-rule="evenodd"/>
		</mask>
		<g mask="url(#mask0_28)">
			<path id="Fill 19" d="M195.98 -4.42C195.43 -4.01 194.84 -3.63 194.32 -3.18C149.57 35.82 104.82 74.83 60.07 113.84C59.63 114.23 59.15 114.58 58.69 114.95L59.26 106.83C59.73 106.49 60.23 106.18 60.67 105.8C102.64 69.22 144.6 32.64 186.56 -3.95C187.04 -4.37 187.46 -4.86 187.9 -5.32C190.39 -5.14 192.88 -4.98 195.37 -4.78C195.58 -4.76 195.78 -4.55 195.98 -4.42Z" fill="#231F20" fill-opacity="1.000000" fill-rule="evenodd"/>
		</g>
		<mask id="mask0_31" mask-type="alpha" maskUnits="userSpaceOnUse" x="62.623657" y="5.348633" width="117.114990" height="141.640625">
			<path id="Clip 23" d="M84.21 6.2L71.3 15.3L163.36 146.5L171.5 130.61L84.21 6.2Z" fill="#000000" fill-opacity="1.000000" fill-rule="evenodd"/>
		</mask>
		<g mask="url(#mask0_31)">
			<path id="Fill 22" d="M62.38 211.21C69.14 205.28 75.89 199.34 82.67 193.43C117.67 162.9 152.69 132.38 187.7 101.86C187.98 101.62 188.3 101.41 188.6 101.18L188.03 109.3C187.6 109.61 187.13 109.88 186.74 110.23C148.42 143.62 110.12 177.01 71.82 210.41C71.34 210.83 70.93 211.32 70.48 211.78L62.38 211.21Z" fill="#231F20" fill-opacity="1.000000" fill-rule="evenodd"/>
		</g>
		<mask id="mask0_34" mask-type="alpha" maskUnits="userSpaceOnUse" x="62.623657" y="5.348633" width="117.114990" height="141.640625">
			<path id="Clip 26" d="M84.21 6.2L71.3 15.3L163.36 146.5L171.5 130.61L84.21 6.2Z" fill="#000000" fill-opacity="1.000000" fill-rule="evenodd"/>
		</mask>
		<g mask="url(#mask0_34)">
			<path id="Fill 25" d="M179.8 -5.88C173.49 -0.34 167.19 5.21 160.86 10.73C127.57 39.76 94.27 68.79 60.97 97.81C60.6 98.13 60.21 98.41 59.83 98.71L60.4 90.58C60.83 90.28 61.29 90.01 61.69 89.66C98 58.01 134.31 26.36 170.61 -5.3C171.01 -5.64 171.34 -6.06 171.7 -6.45C174.4 -6.26 177.1 -6.07 179.8 -5.88Z" fill="#231F20" fill-opacity="1.000000" fill-rule="evenodd"/>
		</g>
		<mask id="mask0_37" mask-type="alpha" maskUnits="userSpaceOnUse" x="62.623657" y="5.348633" width="117.114990" height="141.640625">
			<path id="Clip 29" d="M84.21 6.2L71.3 15.3L163.36 146.5L171.5 130.61L84.21 6.2Z" fill="#000000" fill-opacity="1.000000" fill-rule="evenodd"/>
		</mask>
		<g mask="url(#mask0_37)">
			<path id="Fill 28" d="M78.58 212.34C78.89 212.04 79.18 211.73 79.51 211.45C115.15 180.37 150.8 149.29 186.45 118.22C186.77 117.94 187.12 117.69 187.46 117.43L186.89 125.55C186.46 125.86 186 126.13 185.6 126.48C152.99 154.9 120.38 183.33 87.78 211.76C87.38 212.1 87.04 212.52 86.68 212.91L78.58 212.34Z" fill="#231F20" fill-opacity="1.000000" fill-rule="evenodd"/>
		</g>
		<mask id="mask0_40" mask-type="alpha" maskUnits="userSpaceOnUse" x="62.623657" y="5.348633" width="117.114990" height="141.640625">
			<path id="Clip 32" d="M84.21 6.2L71.3 15.3L163.36 146.5L171.5 130.61L84.21 6.2Z" fill="#000000" fill-opacity="1.000000" fill-rule="evenodd"/>
		</mask>
		<g mask="url(#mask0_40)">
			<path id="Fill 31" d="M163.6 -7.01C163.34 -6.75 163.09 -6.47 162.8 -6.22C129.16 23.12 95.51 52.45 61.86 81.78C61.58 82.02 61.26 82.23 60.96 82.46L61.53 74.34C61.96 74.03 62.42 73.76 62.82 73.41C93.36 46.81 123.88 20.19 154.41 -6.43C154.8 -6.78 155.14 -7.2 155.5 -7.58C158.2 -7.39 160.9 -7.2 163.6 -7.01Z" fill="#231F20" fill-opacity="1.000000" fill-rule="evenodd"/>
		</g>
		<mask id="mask0_43" mask-type="alpha" maskUnits="userSpaceOnUse" x="62.623657" y="5.348633" width="117.114990" height="141.640625">
			<path id="Clip 35" d="M84.21 6.2L71.3 15.3L163.36 146.5L171.5 130.61L84.21 6.2Z" fill="#000000" fill-opacity="1.000000" fill-rule="evenodd"/>
		</mask>
		<g mask="url(#mask0_43)">
			<path id="Fill 34" d="M94.78 213.48C101.26 207.8 107.72 202.1 114.22 196.44C137.91 175.78 161.61 155.12 185.31 134.47C185.63 134.19 185.98 133.94 186.32 133.67C186.13 136.38 185.94 139.09 185.76 141.8C185.32 142.1 184.86 142.38 184.47 142.72C157.63 166.11 130.8 189.5 103.98 212.89C103.58 213.24 103.25 213.66 102.88 214.04L94.78 213.48Z" fill="#231F20" fill-opacity="1.000000" fill-rule="evenodd"/>
		</g>
		<mask id="mask0_46" mask-type="alpha" maskUnits="userSpaceOnUse" x="62.623657" y="5.348633" width="117.114990" height="141.640625">
			<path id="Clip 38" d="M84.21 6.2L71.3 15.3L163.36 146.5L171.5 130.61L84.21 6.2Z" fill="#000000" fill-opacity="1.000000" fill-rule="evenodd"/>
		</mask>
		<g mask="url(#mask0_46)">
			<path id="Fill 37" d="M147.4 -8.15C140.92 -2.47 134.46 3.23 127.97 8.89C106.44 27.67 84.9 46.44 63.36 65.21C62.96 65.56 62.52 65.88 62.1 66.21L62.67 58.09C63.1 57.78 63.56 57.51 63.96 57.17C88.67 35.63 113.38 14.09 138.08 -7.46C138.52 -7.84 138.89 -8.29 139.3 -8.71C142 -8.53 144.7 -8.34 147.4 -8.15Z" fill="#231F20" fill-opacity="1.000000" fill-rule="evenodd"/>
		</g>
		<mask id="mask0_49" mask-type="alpha" maskUnits="userSpaceOnUse" x="62.623657" y="5.348633" width="117.114990" height="141.640625">
			<path id="Clip 41" d="M84.21 6.2L71.3 15.3L163.36 146.5L171.5 130.61L84.21 6.2Z" fill="#000000" fill-opacity="1.000000" fill-rule="evenodd"/>
		</mask>
		<g mask="url(#mask0_49)">
			<path id="Fill 40" d="M110.98 214.61C111.78 213.88 112.56 213.14 113.38 212.43C136.93 191.89 160.49 171.35 184.05 150.82C184.41 150.5 184.81 150.22 185.19 149.92C185 152.63 184.81 155.34 184.62 158.05C184.19 158.35 183.73 158.62 183.33 158.97C162.27 177.32 141.22 195.67 120.18 214.02C119.78 214.37 119.45 214.79 119.08 215.18L110.98 214.61Z" fill="#231F20" fill-opacity="1.000000" fill-rule="evenodd"/>
		</g>
		<mask id="mask0_52" mask-type="alpha" maskUnits="userSpaceOnUse" x="62.623657" y="5.348633" width="117.114990" height="141.640625">
			<path id="Clip 44" d="M84.21 6.2L71.3 15.3L163.36 146.5L171.5 130.61L84.21 6.2Z" fill="#000000" fill-opacity="1.000000" fill-rule="evenodd"/>
		</mask>
		<g mask="url(#mask0_52)">
			<path id="Fill 43" d="M131.2 -9.28C130.97 -9.05 130.76 -8.81 130.52 -8.6C108.35 10.73 86.18 30.06 64.01 49.39C63.77 49.6 63.49 49.77 63.24 49.97L63.8 41.84C64.19 41.57 64.61 41.34 64.97 41.03C84.03 24.42 103.08 7.81 122.13 -8.8C122.48 -9.11 122.78 -9.5 123.1 -9.85C125.8 -9.66 128.5 -9.47 131.2 -9.28Z" fill="#231F20" fill-opacity="1.000000" fill-rule="evenodd"/>
		</g>
		<mask id="mask0_55" mask-type="alpha" maskUnits="userSpaceOnUse" x="62.623657" y="5.348633" width="117.114990" height="141.640625">
			<path id="Clip 47" d="M84.21 6.2L71.3 15.3L163.36 146.5L171.5 130.61L84.21 6.2Z" fill="#000000" fill-opacity="1.000000" fill-rule="evenodd"/>
		</mask>
		<g mask="url(#mask0_55)">
			<path id="Fill 46" d="M127.19 215.74C133.89 209.86 140.59 203.97 147.31 198.1C159.25 187.67 171.21 177.26 183.16 166.85C183.44 166.6 183.75 166.39 184.05 166.17C183.86 168.88 183.67 171.58 183.48 174.29C183.09 174.56 182.67 174.8 182.31 175.11C166.96 188.49 151.61 201.88 136.26 215.27C135.9 215.58 135.61 215.96 135.29 216.31L127.19 215.74Z" fill="#231F20" fill-opacity="1.000000" fill-rule="evenodd"/>
		</g>
		<mask id="mask0_58" mask-type="alpha" maskUnits="userSpaceOnUse" x="62.623657" y="5.348633" width="117.114990" height="141.640625">
			<path id="Clip 50" d="M84.21 6.2L71.3 15.3L163.36 146.5L171.5 130.61L84.21 6.2Z" fill="#000000" fill-opacity="1.000000" fill-rule="evenodd"/>
		</mask>
		<g mask="url(#mask0_58)">
			<path id="Fill 49" d="M115 -10.41C108.9 -5.07 102.81 0.29 96.7 5.63C86.27 14.73 75.83 23.83 65.38 32.93C65.06 33.21 64.71 33.46 64.37 33.72L64.94 25.6C65.29 25.36 65.67 25.16 65.98 24.88C79.34 13.25 92.7 1.6 106.05 -10.04C106.36 -10.32 106.62 -10.67 106.9 -10.98C109.6 -10.79 112.3 -10.6 115 -10.41Z" fill="#231F20" fill-opacity="1.000000" fill-rule="evenodd"/>
		</g>
		<mask id="mask0_61" mask-type="alpha" maskUnits="userSpaceOnUse" x="62.623657" y="5.348633" width="117.114990" height="141.640625">
			<path id="Clip 53" d="M84.21 6.2L71.3 15.3L163.36 146.5L171.5 130.61L84.21 6.2Z" fill="#000000" fill-opacity="1.000000" fill-rule="evenodd"/>
		</mask>
		<g mask="url(#mask0_61)">
			<path id="Fill 52" d="M143.39 216.87C144.96 215.47 146.52 214.05 148.1 212.67C159.28 202.91 170.47 193.17 181.65 183.42C182.06 183.07 182.49 182.75 182.92 182.41L182.35 190.54C182.04 190.74 181.7 190.9 181.43 191.14C171.68 199.62 161.94 208.11 152.21 216.61C151.93 216.85 151.73 217.16 151.49 217.44L143.39 216.87Z" fill="#231F20" fill-opacity="1.000000" fill-rule="evenodd"/>
		</g>
		<mask id="mask0_64" mask-type="alpha" maskUnits="userSpaceOnUse" x="62.623657" y="5.348633" width="117.114990" height="141.640625">
			<path id="Clip 56" d="M84.21 6.2L71.3 15.3L163.36 146.5L171.5 130.61L84.21 6.2Z" fill="#000000" fill-opacity="1.000000" fill-rule="evenodd"/>
		</mask>
		<g mask="url(#mask0_64)">
			<path id="Fill 55" d="M98.8 -11.55C94.61 -7.87 90.44 -4.17 86.24 -0.51C79.34 5.5 72.42 11.48 65.51 17.47L66.08 9.35C66.39 9.15 66.72 8.99 67 8.75C74.66 2.08 82.32 -4.6 89.97 -11.28C90.25 -11.52 90.46 -11.83 90.7 -12.11C93.4 -11.92 96.1 -11.74 98.8 -11.55Z" fill="#231F20" fill-opacity="1.000000" fill-rule="evenodd"/>
		</g>
		<mask id="mask0_67" mask-type="alpha" maskUnits="userSpaceOnUse" x="62.623657" y="5.348633" width="117.114990" height="141.640625">
			<path id="Clip 59" d="M84.21 6.2L71.3 15.3L163.36 146.5L171.5 130.61L84.21 6.2Z" fill="#000000" fill-opacity="1.000000" fill-rule="evenodd"/>
		</mask>
		<g mask="url(#mask0_67)">
			<path id="Fill 58" d="M159.59 218.01C166.99 211.56 174.38 205.11 181.78 198.66C181.59 201.37 181.4 204.08 181.21 206.79C179.35 208.34 177.46 209.85 175.64 211.45C172.96 213.79 170.34 216.2 167.69 218.57L159.59 218.01Z" fill="#231F20" fill-opacity="1.000000" fill-rule="evenodd"/>
		</g>
		<mask id="mask0_70" mask-type="alpha" maskUnits="userSpaceOnUse" x="62.623657" y="5.348633" width="117.114990" height="141.640625">
			<path id="Clip 62" d="M84.21 6.2L71.3 15.3L163.36 146.5L171.5 130.61L84.21 6.2Z" fill="#000000" fill-opacity="1.000000" fill-rule="evenodd"/>
		</mask>
		<g mask="url(#mask0_70)">
			<path id="Fill 61" d="M175.79 219.14C177.41 217.73 179.02 216.32 180.64 214.91L180.33 219.46L175.79 219.14Z" fill="#231F20" fill-opacity="1.000000" fill-rule="evenodd"/>
		</g>
		<path id="Fill 65" d="M163.97 147.76L197.25 194.2L151.74 171.13L163.97 147.76Z" fill="#231F20" fill-opacity="1.000000" fill-rule="evenodd"/>
		<path id="Fill 66" d="M221.19 199.97L172.44 130.48L186.4 103.31L253.13 137.77L221.19 199.97Z" fill="#231F20" fill-opacity="1.000000" fill-rule="evenodd"/>
		<path id="Fill 67" d="M84.8451 5.3374L70.6969 15.3154L163.25 147.183L163.968 148.205L172.89 130.8L84.8451 5.3374ZM72.7964 15.6816L84.4788 7.44238L171.131 130.922L163.766 145.29L72.7964 15.6816Z" clip-rule="evenodd" fill="#231F20" fill-opacity="1.000000" fill-rule="evenodd"/>
		<path id="Fill 68" d="M252.001 242.798L220.44 198.31L217.774 203.442L194.439 191.5L237.841 252.677L252.001 242.798ZM220.639 201.196L218.426 205.46L199.213 195.63L238.204 250.591L249.896 242.434L220.639 201.196Z" clip-rule="evenodd" fill="#231F20" fill-opacity="1.000000" fill-rule="evenodd"/>
		<path id="Fill 69" d="M199.484 27.4634C188.056 26.6646 178.106 35.3027 177.307 46.7202C176.509 58.1377 185.16 68.0767 196.588 68.876C208.019 69.6753 217.968 61.0371 218.766 49.6191C219.564 38.2017 210.915 28.2627 199.484 27.4634ZM199.379 28.9648C209.981 29.7061 218.004 38.9238 217.263 49.5142C216.522 60.1045 207.295 68.1162 196.693 67.3745C186.091 66.6333 178.07 57.4155 178.81 46.8252C179.551 36.2349 188.777 28.2236 199.379 28.9648Z" clip-rule="evenodd" fill="#231F20" fill-opacity="1.000000" fill-rule="evenodd"/>
		<path id="Fill 71" d="M108.606 125.662L9.75513 109.863L112.671 202.343L108.635 126.27L108.606 125.662ZM14.5591 112.156L107.163 126.956L110.975 198.793L14.5591 112.156Z" clip-rule="evenodd" fill="#231F20" fill-opacity="1.000000" fill-rule="evenodd"/>
	</g>
</svg>
