<svg width="177.539551" height="224.799561" viewBox="0 0 177.54 224.8" fill="none" xmlns="http://www.w3.org/2000/svg" xmlns:xlink="http://www.w3.org/1999/xlink">
	<desc>
			Created with Pixso.
	</desc>
	<defs/>
	<g opacity="0.502697" style="mix-blend-mode:normal">
		<path id="Stroke 1" d="M46.2 50.33L49.68 44.22L135.35 92.94L131.87 99.05L46.2 50.33Z" stroke="#010202" stroke-opacity="1.000000" stroke-width="1.000000"/>
		<path id="Stroke 2" d="M35.18 1.88L151.75 223.71" stroke="#010202" stroke-opacity="1.000000" stroke-width="1.000000"/>
		<path id="Fill 4" d="M49.38 114.17C25.09 113.32 6.09 92.97 6.93 68.71C7.78 44.45 28.16 25.47 52.45 26.32C76.74 27.17 95.75 47.52 94.9 71.78C94.05 96.04 73.67 115.02 49.38 114.17Z" fill="#010202" fill-opacity="1.000000" fill-rule="evenodd"/>
		<mask id="mask0_115" mask-type="alpha" maskUnits="userSpaceOnUse" x="107.488037" y="145.158203" width="64.595947" height="64.515381">
			<path id="Clip 7" d="M172.08 147.33L169.9 209.67L107.48 207.49L109.66 145.15L172.08 147.33Z" fill="#000000" fill-opacity="1.000000" fill-rule="evenodd"/>
		</mask>
		<path id="Stroke 9" d="M85.43 97.52L48.05 26.37" stroke="#FEFEFE" stroke-opacity="1.000000" stroke-width="1.000000"/>
		<path id="Stroke 13" d="M13.61 200.65L10.3 194.44L97.38 148.29L100.68 154.5L13.61 200.65Z" stroke="#010202" stroke-opacity="1.000000" stroke-width="1.000000"/>
		<path id="Stroke 15" d="M66.05 134.44C66.22 129.45 70.41 125.55 75.4 125.73C80.39 125.9 84.3 130.08 84.12 135.07C83.95 140.05 79.76 143.95 74.77 143.78C69.78 143.6 65.87 139.42 66.05 134.44Z" stroke="#010202" stroke-opacity="1.000000" stroke-width="1.000000"/>
	</g>
</svg>
