<svg width="278.860474" height="286.402344" viewBox="0 0 278.86 286.402" fill="none" xmlns="http://www.w3.org/2000/svg" xmlns:xlink="http://www.w3.org/1999/xlink">
	<desc>
			Created with Pixso.
	</desc>
	<defs/>
	<g opacity="0.400065" style="mix-blend-mode:normal">
		<path id="Fill 1" d="M21.94 154.22C27.26 135.64 46.86 124.96 65.71 130.37C84.55 135.77 95.51 155.21 90.19 173.79C84.86 192.38 65.26 203.06 46.41 197.65C27.57 192.25 16.61 172.81 21.94 154.22Z" fill="#231F20" fill-opacity="1.000000" fill-rule="evenodd"/>
		<path id="Fill 3" d="M43.27 81.97L81.16 243.68L198.99 126.63L43.27 81.97Z" fill="#C5CEBD" fill-opacity="1.000000" fill-rule="evenodd"/>
		<path id="Stroke 5" d="M200.487 126.397L42.8405 81.1927L80.5931 247.023L200.487 126.397ZM197.601 127.153L81.459 244.003L44.8877 83.3628L197.601 127.153Z" clip-rule="evenodd" fill="#231F20" fill-opacity="1.000000" fill-rule="evenodd"/>
		<path id="Stroke 7" d="M66.0975 128.609C46.986 123.128 27.1727 133.749 21.8448 152.33C16.5168 170.91 27.6913 190.417 46.8029 195.897C65.9144 201.377 85.7277 190.756 91.0557 172.176C96.3835 153.595 85.2091 134.089 66.0975 128.609ZM47.2117 194.471C28.9099 189.223 18.2089 170.544 23.311 152.75C28.4132 134.957 47.387 124.786 65.6887 130.034C83.9905 135.282 94.6915 153.962 89.5894 171.755C84.4872 189.549 65.5134 199.719 47.2117 194.471Z" clip-rule="evenodd" fill="#231F20" fill-opacity="1.000000" fill-rule="evenodd"/>
		<path id="Stroke 9" d="M213.35 264.61L212.03 265.34L66.04 1.97L67.36 1.24L213.35 264.61Z" fill="#231F20" fill-opacity="1.000000" fill-rule="nonzero"/>
		<path id="Stroke 11" d="M152.91 215.071C149.458 214.082 145.92 215.861 145.007 219.047C144.094 222.232 146.151 225.617 149.602 226.606C153.052 227.596 156.59 225.815 157.503 222.63C158.417 219.445 156.36 216.06 152.91 215.071ZM150.007 225.194C147.401 224.447 145.847 221.891 146.537 219.485C147.227 217.08 149.899 215.736 152.505 216.483C155.11 217.23 156.663 219.786 155.974 222.192C155.284 224.597 152.612 225.941 150.007 225.194Z" clip-rule="evenodd" fill="#231F20" fill-opacity="1.000000" fill-rule="evenodd"/>
		<path id="Stroke 15" d="M124.202 104.53L159.021 167.569L200.141 126.306L124.202 104.53ZM127.293 106.995L197.257 127.056L159.372 165.073L127.293 106.995Z" clip-rule="evenodd" fill="#231F20" fill-opacity="1.000000" fill-rule="evenodd"/>
		<path id="Stroke 17" d="M243.99 180.91L227.27 221.94L225.84 221.36L241.95 181.84L203.64 169.77L233.72 137.9L203.88 103.12L205.06 102.17L235.76 137.97L206.4 169.08L243.99 180.91Z" fill="#231F20" fill-opacity="1.000000" fill-rule="nonzero"/>
		<path id="Fill 13" d="M150.25 68.29C152.69 59.79 161.34 54.82 169.56 57.18C177.79 59.54 182.49 68.34 180.05 76.83C177.62 85.33 168.97 90.3 160.74 87.94C152.52 85.58 147.82 76.78 150.25 68.29Z" fill="#231F20" fill-opacity="1.000000" fill-rule="evenodd"/>
	</g>
</svg>
