<svg width="232.271851" height="194.420135" viewBox="0 0 232.272 194.42" fill="none" xmlns="http://www.w3.org/2000/svg" xmlns:xlink="http://www.w3.org/1999/xlink">
	<desc>
			Created with Pixso.
	</desc>
	<defs/>
	<g opacity="0.372070" style="mix-blend-mode:normal">
		<path id="Stroke 1" d="M144.14 106.25L160.53 151.46" stroke="#020303" stroke-opacity="1.000000" stroke-width="1.000000"/>
		<path id="Stroke 2" d="M148.14 106.04L164.53 151.25" stroke="#020303" stroke-opacity="1.000000" stroke-width="1.000000"/>
		<path id="Stroke 3" d="M153.03 103.78L169.41 148.99" stroke="#020303" stroke-opacity="1.000000" stroke-width="1.000000"/>
		<path id="Stroke 4" d="M156.92 101.58L173.3 146.78" stroke="#020303" stroke-opacity="1.000000" stroke-width="1.000000"/>
		<path id="Stroke 5" d="M160.86 100.37L177.25 145.57" stroke="#020303" stroke-opacity="1.000000" stroke-width="1.000000"/>
		<path id="Stroke 6" d="M165.8 99.11L182.19 144.31" stroke="#020302" stroke-opacity="1.000000" stroke-width="1.000000"/>
		<path id="Stroke 7" d="M169.69 96.9L186.08 142.11" stroke="#020302" stroke-opacity="1.000000" stroke-width="1.000000"/>
		<path id="Stroke 8" d="M174.63 95.64L191.02 140.85" stroke="#020302" stroke-opacity="1.000000" stroke-width="1.000000"/>
		<path id="Stroke 9" d="M177.52 93.49L193.91 138.69" stroke="#020302" stroke-opacity="1.000000" stroke-width="1.000000"/>
		<path id="Stroke 10" d="M181.46 92.28L197.85 137.48" stroke="#020202" stroke-opacity="1.000000" stroke-width="1.000000"/>
		<path id="Stroke 11" d="M186.35 90.02L202.74 135.22" stroke="#010202" stroke-opacity="1.000000" stroke-width="1.000000"/>
		<path id="Stroke 12" d="M191.34 89.76L207.73 134.96" stroke="#010202" stroke-opacity="1.000000" stroke-width="1.000000"/>
		<path id="Stroke 13" d="M196.23 87.5L212.62 132.7" stroke="#010202" stroke-opacity="1.000000" stroke-width="1.000000"/>
		<path id="Stroke 14" d="M199.12 85.35L215.51 130.55" stroke="#010202" stroke-opacity="1.000000" stroke-width="1.000000"/>
		<path id="Stroke 17" d="M166.097 103.252C167.736 97.6911 168.429 91.8746 168.119 85.9684C167.136 67.2068 156.112 50.7757 139.675 42.7208C132.064 38.988 123.645 37.2349 115.014 37.6872C87.9584 39.1051 66.8877 61.8318 67.1902 89.1038C67.1931 89.7617 67.2159 90.4615 67.2574 91.2543C68.7319 119.389 92.5011 141.007 120.352 139.547C130.311 139.026 139.687 135.605 147.551 129.779C156.408 123.22 162.948 113.897 166.097 103.252ZM167 86.0271C166.039 67.6814 155.26 51.6154 139.186 43.7387C131.744 40.0889 123.514 38.375 115.073 38.8174C88.6182 40.2038 68.0149 62.4263 68.3107 89.096C68.3136 89.7377 68.3358 90.4199 68.3766 91.1957C69.8182 118.706 93.0599 139.845 120.293 138.417C130.032 137.907 139.198 134.562 146.887 128.866C155.549 122.452 161.944 113.335 165.023 102.928C166.626 97.4907 167.303 91.8035 167 86.0271Z" clip-rule="evenodd" fill="#010202" fill-opacity="1.000000" fill-rule="evenodd"/>
		<path id="Stroke 19" d="M24.12 117.55L23.52 116.59L149.91 35.85L150.52 36.81L24.12 117.55Z" fill="#010202" fill-opacity="1.000000" fill-rule="nonzero"/>
		<path id="Fill 21" d="M182.66 76.82L178.54 78.41L149.86 5.19L153.98 3.6L182.66 76.82Z" fill="#010202" fill-opacity="1.000000" fill-rule="evenodd"/>
		<path id="Stroke 23" d="M12.5754 70.0928C17.8147 69.8182 21.8392 65.3483 21.5647 60.1087C21.29 54.8691 16.8203 50.8443 11.5811 51.1189C6.34155 51.3935 2.31616 55.8636 2.5907 61.1031C2.86523 66.3425 7.33594 70.3674 12.5754 70.0928ZM11.6377 52.1994C16.2803 51.9561 20.2408 55.5225 20.4843 60.1653C20.7275 64.8082 17.1614 68.769 12.5188 69.0123C7.87598 69.2556 3.91443 65.6891 3.67114 61.0464C3.42786 56.4038 6.99487 52.4427 11.6377 52.1994Z" clip-rule="evenodd" fill="#010202" fill-opacity="1.000000" fill-rule="evenodd"/>
		<path id="Fill 25" d="M42.08 88.57C42.25 91.88 39.71 94.7 36.4 94.87C33.09 95.05 30.27 92.51 30.09 89.2C29.92 85.89 32.46 83.06 35.77 82.89C39.08 82.72 41.9 85.26 42.08 88.57Z" fill="#010202" fill-opacity="1.000000" fill-rule="evenodd"/>
		<path id="Fill 27" d="M62.56 58.96C62.92 65.85 57.62 71.73 50.73 72.09C43.83 72.46 37.95 67.16 37.59 60.27C37.23 53.37 42.52 47.49 49.42 47.13C56.31 46.77 62.19 52.06 62.56 58.96Z" fill="#010202" fill-opacity="1.000000" fill-rule="evenodd"/>
		<path id="Stroke 29" d="M128.414 188.192L229.247 125.025L157.89 99.528L128.414 188.192ZM226.688 125.304L130.458 185.587L158.587 100.97L226.688 125.304Z" clip-rule="evenodd" fill="#010202" fill-opacity="1.000000" fill-rule="evenodd"/>
		<path id="Fill 31" d="M166.04 103.66C163.03 114.34 156.77 123.59 148.39 130.06L157.71 100.53L166.04 103.66Z" fill="#010202" fill-opacity="1.000000" fill-rule="evenodd"/>
	</g>
</svg>
