<svg width="238.104492" height="276.288300" viewBox="0 0 238.104 276.288" fill="none" xmlns="http://www.w3.org/2000/svg" xmlns:xlink="http://www.w3.org/1999/xlink">
	<desc>
			Created with Pixso.
	</desc>
	<defs/>
	<g opacity="0.402088" style="mix-blend-mode:normal">
		<path id="Stroke 1" d="M215.45 130.36L145.95 22.7" stroke="#231F20" stroke-opacity="1.000000" stroke-width="1.000000"/>
		<path id="Stroke 3" d="M208.45 134.36L138.95 26.7" stroke="#201C1D" stroke-opacity="1.000000" stroke-width="1.000000"/>
		<path id="Stroke 4" d="M203.45 138.36L133.95 30.7" stroke="#1E1A1C" stroke-opacity="1.000000" stroke-width="1.000000"/>
		<path id="Stroke 5" d="M196.45 141.36L126.95 33.7" stroke="#1C191A" stroke-opacity="1.000000" stroke-width="1.000000"/>
		<path id="Stroke 6" d="M190.45 145.36L120.95 37.7" stroke="#1B1819" stroke-opacity="1.000000" stroke-width="1.000000"/>
		<path id="Stroke 7" d="M184.45 149.36L114.95 41.7" stroke="#191718" stroke-opacity="1.000000" stroke-width="1.000000"/>
		<path id="Stroke 8" d="M178.45 154.36L108.95 46.7" stroke="#181617" stroke-opacity="1.000000" stroke-width="1.000000"/>
		<path id="Stroke 9" d="M172.45 159.36L102.95 51.7" stroke="#171516" stroke-opacity="1.000000" stroke-width="1.000000"/>
		<path id="Stroke 10" d="M166.45 162.36L96.95 54.7" stroke="#161415" stroke-opacity="1.000000" stroke-width="1.000000"/>
		<path id="Stroke 11" d="M160.45 166.36L90.95 58.7" stroke="#151314" stroke-opacity="1.000000" stroke-width="1.000000"/>
		<path id="Stroke 12" d="M153.45 170.36L83.95 62.7" stroke="#151213" stroke-opacity="1.000000" stroke-width="1.000000"/>
		<path id="Stroke 13" d="M147.45 174.36L77.95 66.7" stroke="#131111" stroke-opacity="1.000000" stroke-width="1.000000"/>
		<path id="Stroke 14" d="M141.45 178.36L71.95 70.7" stroke="#110F0F" stroke-opacity="1.000000" stroke-width="1.000000"/>
		<path id="Stroke 15" d="M135.45 182.36L65.95 74.7" stroke="#0F0D0D" stroke-opacity="1.000000" stroke-width="1.000000"/>
		<path id="Stroke 16" d="M129.45 186.36L59.95 78.7" stroke="#0C0A0A" stroke-opacity="1.000000" stroke-width="1.000000"/>
		<path id="Stroke 17" d="M123.45 191.36L53.95 83.7" stroke="#080607" stroke-opacity="1.000000" stroke-width="1.000000"/>
		<path id="Stroke 18" d="M116.45 195.36L46.95 87.7" stroke="#030303" stroke-opacity="1.000000" stroke-width="1.000000"/>
		<path id="Stroke 19" d="M110.45 199.36L40.95 91.7" stroke="#010202" stroke-opacity="1.000000" stroke-width="1.000000"/>
		<path id="Fill 20" d="M196.46 48.41L180.41 108.3L139.87 85.74L196.46 48.41Z" fill="#DFCCC2" fill-opacity="1.000000" fill-rule="evenodd"/>
		<path id="Stroke 21" d="M180.41 108.3L139.87 85.74L196.46 48.41L180.41 108.3Z" stroke="#010202" stroke-opacity="1.000000" stroke-width="1.000000"/>
		<path id="Stroke 22" d="M114.915 186.346C109.841 205.284 121.079 224.75 140.018 229.824C158.956 234.899 178.422 223.66 183.496 204.722C188.57 185.784 177.332 166.318 158.394 161.244C139.456 156.169 119.99 167.408 114.915 186.346ZM182.209 204.377C177.325 222.604 158.59 233.421 140.363 228.537C122.135 223.653 111.319 204.918 116.203 186.691C121.087 168.464 139.822 157.647 158.049 162.531C176.276 167.415 187.093 186.15 182.209 204.377Z" clip-rule="evenodd" fill="#010202" fill-opacity="1.000000" fill-rule="evenodd"/>
		<path id="Stroke 24" d="M26.23 132.85L26.26 131.52C26.42 131.52 26.73 131.53 27.16 131.56C27.87 131.61 28.68 131.67 29.56 131.77C34.69 132.35 39.91 133.63 44.54 135.85C51.65 139.27 56.31 144.47 57.54 151.75C59.04 160.61 55.35 172.06 45.64 186.44C36.18 200.43 32.79 211.9 34.52 221.08C35.93 228.52 40.64 234.24 47.83 238.46C53.32 241.69 59.53 243.68 65.29 244.71C65.79 244.81 66.24 244.88 66.62 244.93C66.85 244.97 67.01 244.99 67.09 245L66.93 246.32C66.84 246.31 66.67 246.29 66.43 246.25C66.03 246.19 65.57 246.12 65.05 246.03C59.15 244.96 52.8 242.93 47.15 239.61C39.66 235.21 34.7 229.19 33.21 221.33C31.41 211.76 34.89 199.95 44.53 185.69C54.07 171.58 57.66 160.44 56.23 151.97C55.07 145.16 50.71 140.29 43.96 137.05C39.49 134.9 34.41 133.66 29.41 133.1C28.55 133 27.77 132.93 27.08 132.89C26.67 132.87 26.38 132.85 26.23 132.85Z" fill="#010202" fill-opacity="1.000000" fill-rule="nonzero"/>
		<path id="Fill 26" d="M120.51 24.69L126.47 26.72L76.89 170.37L70.93 168.34L120.51 24.69Z" fill="#010202" fill-opacity="1.000000" fill-rule="evenodd"/>
	</g>
</svg>
